<svg width="362" height="675" viewBox="0 0 362 675" fill="none" xmlns="http://www.w3.org/2000/svg">
<path d="M499.913 -32.2668L499.649 -32.6859L499.228 -32.4252L0.736931 275.989L0.5 276.135V276.414V408.226V408.503L0.735608 408.65L494.747 716.424L495.16 716.682L495.428 716.276L575.417 595.342L575.707 594.904L575.255 594.636L149.977 342.318L575.257 88.0835L575.696 87.8207L575.423 87.3875L499.913 -32.2668Z" stroke="#4B351C" stroke-opacity="0.06"/>
<path d="M647.913 -32.2668L647.649 -32.6859L647.228 -32.4252L148.737 275.989L148.5 276.135V276.414V408.226V408.503L148.736 408.65L642.747 716.424L643.16 716.682L643.428 716.276L723.417 595.342L723.707 594.903L723.254 594.635L295.88 342.318L723.256 88.0841L723.697 87.8216L723.423 87.3875L647.913 -32.2668Z" stroke="#4B351C" stroke-opacity="0.06"/>
</svg>
