<svg width="421" height="675" viewBox="0 0 421 675" fill="none" xmlns="http://www.w3.org/2000/svg">
<g style="mix-blend-mode:multiply" filter="url(#filter0_f_846_44272)">
<path fill-rule="evenodd" clip-rule="evenodd" d="M247.369 385.549C196.784 307.227 160.348 213.017 175.541 130.907C190.377 50.7231 260.177 15.2525 322.617 -21.1332C385.353 -57.6913 451.96 -108.787 528.132 -74.5581C602.98 -40.9244 632.598 59.2827 676.403 137.846C718.814 213.912 778.649 287.604 774.868 367.965C770.809 454.224 723.008 524.234 656.658 557.442C592.833 589.387 512.853 568.321 437.655 536.74C364.489 506.011 294.806 458.996 247.369 385.549Z" fill="#E69435"/>
</g>
<g style="mix-blend-mode:overlay" filter="url(#filter1_f_846_44272)">
<path fill-rule="evenodd" clip-rule="evenodd" d="M251.178 234.561C314.007 181.318 400.008 243.727 472.22 267.766C520.167 283.728 559.496 309.677 590.644 347.57C622.323 386.109 644.33 429.469 647.466 480.96C651.723 550.871 666.704 633.868 611.193 685.002C554.77 736.976 468.008 726.781 398.323 710.457C339.951 696.783 298.455 654.381 268.807 604.797C243.085 561.779 249.957 509.952 247.493 458.205C243.83 381.289 187.928 288.161 251.178 234.561Z" fill="#F4F3F1"/>
</g>
<g style="mix-blend-mode:overlay" filter="url(#filter2_f_846_44272)">
<path fill-rule="evenodd" clip-rule="evenodd" d="M652.537 911.532C578.483 947.566 510.608 865.811 446.594 824.644C404.09 797.311 372.409 762.433 351.61 718.01C330.457 672.829 319.868 625.37 329.576 574.705C342.757 505.916 348.788 421.793 415.229 385.992C482.761 349.603 564.299 380.958 627.775 414.023C680.945 441.721 710.653 493.075 727.104 548.455C741.377 596.502 721.89 645.015 711.468 695.761C695.977 771.19 727.087 875.258 652.537 911.532Z" fill="#F4F3F1"/>
</g>
<defs>
<filter id="filter0_f_846_44272" x="0.0579224" y="-257.852" width="946.981" height="1003.18" filterUnits="userSpaceOnUse" color-interpolation-filters="sRGB">
<feFlood flood-opacity="0" result="BackgroundImageFix"/>
<feBlend mode="normal" in="SourceGraphic" in2="BackgroundImageFix" result="shape"/>
<feGaussianBlur stdDeviation="86" result="effect1_foregroundBlur_846_44272"/>
</filter>
<filter id="filter1_f_846_44272" x="49.1964" y="41.6543" width="775.329" height="854.018" filterUnits="userSpaceOnUse" color-interpolation-filters="sRGB">
<feFlood flood-opacity="0" result="BackgroundImageFix"/>
<feBlend mode="normal" in="SourceGraphic" in2="BackgroundImageFix" result="shape"/>
<feGaussianBlur stdDeviation="86" result="effect1_foregroundBlur_846_44272"/>
</filter>
<filter id="filter2_f_846_44272" x="153.947" y="197.705" width="750.201" height="894.773" filterUnits="userSpaceOnUse" color-interpolation-filters="sRGB">
<feFlood flood-opacity="0" result="BackgroundImageFix"/>
<feBlend mode="normal" in="SourceGraphic" in2="BackgroundImageFix" result="shape"/>
<feGaussianBlur stdDeviation="86" result="effect1_foregroundBlur_846_44272"/>
</filter>
</defs>
</svg>
